<?xml version="1.0" encoding="UTF-8"?>
<svg version="1.1" xmlns="http://www.w3.org/2000/svg" width="512" height="512">
<path d="M0 0 C1.51752365 0.00081573 1.51752365 0.00081573 3.06570435 0.00164795 C57.76000615 0.13648652 110.48170491 17.59823712 153.75 51.375 C154.71035156 52.12265625 155.67070312 52.8703125 156.66015625 53.640625 C164.01729784 59.52633827 170.92212849 65.89054214 177.75 72.375 C178.57757813 73.16003906 179.40515625 73.94507812 180.2578125 74.75390625 C185.39968467 79.76140894 190.01746452 85.07926256 194.44873047 90.72314453 C195.36617874 91.88777024 196.29032782 93.04713261 197.21923828 94.20263672 C209.89761772 109.98834582 220.20693117 127.02873489 228.75 145.375 C229.25789063 146.45007813 229.76578125 147.52515625 230.2890625 148.6328125 C257.64209417 209.33606459 258.13822892 279.45396192 234.8125 341.4375 C231.33583782 350.37999687 227.28506918 358.92680233 222.75 367.375 C222.36585938 368.10315918 221.98171875 368.83131836 221.5859375 369.58154297 C213.98349717 383.95567309 205.16137951 396.87012946 194.75 409.375 C194.31993652 409.89529785 193.88987305 410.4155957 193.44677734 410.95166016 C182.92969697 423.63434455 171.78674822 435.2501827 158.75 445.375 C157.49566299 446.38097354 156.24178805 447.38752341 154.98828125 448.39453125 C139.80847459 460.44754021 123.30710258 470.19941032 105.75 478.375 C104.67492187 478.88289063 103.59984375 479.39078125 102.4921875 479.9140625 C84.40864698 488.06254943 65.21166772 493.69989642 45.75 497.375 C44.92999512 497.53871094 44.10999023 497.70242188 43.26513672 497.87109375 C15.74956455 503.16528454 -16.81543275 503.05058984 -44.25 497.375 C-45.71663086 497.07698486 -45.71663086 497.07698486 -47.21289062 496.77294922 C-104.31311897 484.82486069 -158.16992217 454.98852337 -194.25 408.375 C-195.25446075 407.12179627 -196.25972614 405.86923721 -197.265625 404.6171875 C-237.25770004 354.26123939 -255.70370129 287.93283474 -248.90234375 224.11279297 C-242.90587978 172.53883651 -222.97687759 124.26693924 -188.25 85.375 C-187.50492188 84.52035156 -186.75984375 83.66570312 -185.9921875 82.78515625 C-176.83880372 72.40147895 -167.16733426 62.89990872 -156.25 54.375 C-155.28964844 53.59769531 -154.32929688 52.82039063 -153.33984375 52.01953125 C-131.91847518 34.98534562 -107.9316907 22.59735277 -82.25 13.375 C-81.43563477 13.08109375 -80.62126953 12.7871875 -79.78222656 12.484375 C-54.02489461 3.35682904 -27.19521592 -0.05508878 0 0 Z M-152.88671875 80.234375 C-154.95029213 82.10352907 -157.05514613 83.89823362 -159.1875 85.6875 C-202.01625815 123.29114965 -225.07771438 182.15061231 -228.80249023 237.90478516 C-232.00091886 295.6188286 -212.89713557 355.28196159 -174.30078125 398.74609375 C-172.45854775 400.77849529 -170.58725576 402.77504426 -168.703125 404.76953125 C-166.61972845 406.98231071 -164.64252399 409.23748316 -162.6875 411.5625 C-150.08429586 426.00428922 -133.55163277 437.50687325 -117.25 447.375 C-116.55068359 447.80022949 -115.85136719 448.22545898 -115.13085938 448.66357422 C-90.5937488 463.39603604 -63.4431143 472.78353546 -35.25 477.375 C-33.6419751 477.64207764 -33.6419751 477.64207764 -32.00146484 477.91455078 C-21.48295499 479.50104661 -11.12093365 479.77431994 -0.5 479.75 C0.84611359 479.74918427 0.84611359 479.74918427 2.21942139 479.74835205 C39.39493017 479.64524485 74.95344522 471.01088323 107.75 453.375 C108.39743164 453.03388184 109.04486328 452.69276367 109.71191406 452.34130859 C125.56721012 443.96087515 139.84260685 433.68705499 153.20703125 421.75048828 C154.65898194 420.45613857 156.12590633 419.17864189 157.59375 417.90234375 C161.97124205 414.05885299 166.05850674 410.15380431 169.80078125 405.6875 C171.28382218 403.92806066 172.81023891 402.2050812 174.35546875 400.5 C207.60630561 363.54402177 229.47816919 311.69476819 229.98828125 261.6953125 C229.9980751 260.89325882 230.00786896 260.09120514 230.01795959 259.2648468 C230.35733437 224.21209951 225.4121948 191.87636434 211.75 159.375 C211.44368652 158.64120117 211.13737305 157.90740234 210.82177734 157.15136719 C203.53406124 139.99314635 193.40293729 123.89769051 181.75 109.375 C181.0590625 108.49328125 180.368125 107.6115625 179.65625 106.703125 C171.25573373 96.17204301 162.19032739 85.92424922 151.75 77.375 C150.41582031 76.22644531 150.41582031 76.22644531 149.0546875 75.0546875 C72.54185165 9.72910703 -41.92541178 2.47990562 -152.88671875 80.234375 Z " fill="#000000" transform="translate(255.25,5.625)"/>
<path d="M0 0 C0.83171722 0.00021149 1.66343445 0.00042297 2.52035522 0.00064087 C16.5337469 0.0360719 29.95644478 1.09237282 43.625 4.375 C44.76340332 4.63990234 44.76340332 4.63990234 45.92480469 4.91015625 C90.91002572 15.73065485 130.59253533 46.51431555 154.91162109 85.43408203 C165.62391317 103.17415768 172.73069457 122.28175258 177.625 142.375 C177.80434082 143.0875293 177.98368164 143.80005859 178.16845703 144.53417969 C183.56718681 167.06194783 183.27225834 195.93818383 177.625 218.375 C177.32698486 219.59848145 177.32698486 219.59848145 177.02294922 220.84667969 C164.66090238 270.4245065 134.98990705 310.50222906 91.3359375 337.015625 C74.97537592 346.64206747 57.07821245 353.0723079 38.625 357.375 C37.96081055 357.53871094 37.29662109 357.70242188 36.61230469 357.87109375 C13.97220417 363.23468095 -14.82517179 363.05070303 -37.375 357.375 C-38.59848145 357.07698486 -38.59848145 357.07698486 -39.84667969 356.77294922 C-88.04152412 344.75574389 -128.80652125 315.86581901 -154.87890625 273.359375 C-165.86172005 254.7928832 -173.3935864 234.55056489 -177.375 213.375 C-177.72304687 211.53808594 -177.72304687 211.53808594 -178.078125 209.6640625 C-185.66447671 163.17056415 -174.69293041 114.75510661 -147.5625 76.25 C-118.09508697 35.58000392 -75.47289873 9.28544462 -25.89453125 1.265625 C-17.26639429 0.08659594 -8.69339896 -0.02047596 0 0 Z M-114.5703125 69.53515625 C-143.98712306 100.02699975 -159.65626154 141.41828287 -159.359375 183.59472656 C-158.42807941 226.57013773 -139.39349905 267.17708923 -108.76879883 297.01147461 C-74.69545262 329.085767 -32.06235858 340.46294787 13.65234375 339.50683594 C21.20239686 339.25628108 28.32454034 338.28346126 35.625 336.375 C36.41970703 336.17100586 37.21441406 335.96701172 38.03320312 335.75683594 C60.54310955 329.82272016 81.50523434 320.12090304 99.625 305.375 C100.18960937 304.91722168 100.75421875 304.45944336 101.3359375 303.98779297 C129.61338713 280.90431812 147.59800489 250.54177718 156.625 215.375 C156.89618652 214.33762695 156.89618652 214.33762695 157.17285156 213.27929688 C162.31321159 192.53390749 162.02275501 166.02309672 156.625 145.375 C156.42100586 144.58029297 156.21701172 143.78558594 156.00683594 142.96679688 C146.35027375 106.33651875 125.59500172 73.59670383 94.625 51.375 C94.05233398 50.95412109 93.47966797 50.53324219 92.88964844 50.09960938 C28.9947625 3.44165004 -59.73767495 14.41392587 -114.5703125 69.53515625 Z " fill="#000000" transform="translate(255.375,75.625)"/>
<path d="M0 0 C0.6581369 0.00021149 1.3162738 0.00042297 1.99435425 0.00064087 C31.83099358 0.09607252 58.18264896 11.82254631 79.6875 32.25 C99.99038593 53.67841905 110.85373084 80.44433281 110.8125 109.9375 C110.81195618 110.59630157 110.81141235 111.25510315 110.81085205 111.93386841 C110.7693949 122.88634998 109.89270813 132.9699326 106.4375 143.375 C106.22319336 144.0242041 106.00888672 144.6734082 105.78808594 145.34228516 C101.27935086 158.5042476 94.48814673 170.79983068 85.4375 181.375 C84.76074219 182.18453125 84.08398438 182.9940625 83.38671875 183.828125 C66.05581501 203.89872755 41.57090491 216.54170193 15.4375 220.375 C-0.688428 221.28130215 -17.09995629 221.49777724 -32.5625 216.375 C-33.520354 216.06151611 -33.520354 216.06151611 -34.49755859 215.74169922 C-63.15110362 206.01566754 -86.08881086 185.83070472 -99.47509766 158.70898438 C-112.06810027 132.17006839 -113.82845354 102.23720751 -104.5625 74.375 C-94.48995039 46.32574728 -74.96373605 23.2888169 -47.9375 10.4375 C-32.26696228 3.23655201 -17.23390703 -0.02300045 0 0 Z M-62.07373047 45.91748047 C-80.05104841 63.51744572 -89.24336726 86.3928903 -89.5625 111.375 C-89.24236747 135.39494375 -79.25556819 157.32402348 -62.5625 174.375 C-42.8436206 193.23770011 -19.84922183 200.10038648 6.9921875 199.6875 C14.97473253 199.40895816 21.90345276 198.05321613 29.4375 195.375 C31.22994141 194.73884766 31.22994141 194.73884766 33.05859375 194.08984375 C55.92275439 185.09944543 72.53450737 167.73839496 82.96875 145.91015625 C91.31813491 125.81389736 92.76622853 101.99132979 85.4375 81.375 C84.80134766 79.58255859 84.80134766 79.58255859 84.15234375 77.75390625 C74.96520597 54.38940265 56.97489836 37.29496824 34.33789062 27.19580078 C1.38796568 12.96434553 -36.41183644 21.81134383 -62.07373047 45.91748047 Z " fill="#000000" transform="translate(255.5625,145.625)"/>
<path d="M0 0 C8.80288754 6.34043826 15.4186507 14.72648904 17.58203125 25.4921875 C18.92007691 37.90936834 17.85729499 48.88109459 10.39453125 59.2421875 C3.58210875 67.3274193 -4.72289951 73.55522767 -15.48876953 74.71533203 C-28.40007937 75.61089799 -39.16843729 74.04490094 -49.3515625 65.46484375 C-57.80787666 57.3921809 -62.70289353 47.86312404 -63.44921875 36.08984375 C-63.29909518 23.61082163 -59.17306379 13.61023693 -50.66015625 4.53515625 C-37.05040552 -7.86536576 -15.61816806 -9.73927766 0 0 Z M-35.79296875 19.8046875 C-40.29530751 24.41422481 -41.61314119 27.98987408 -41.91796875 34.3671875 C-41.71130792 41.3161578 -39.72913805 45.36454722 -34.7265625 50.08984375 C-29.94534621 53.67326055 -25.28252465 54.3072147 -19.390625 54.0390625 C-13.26910873 52.91289656 -8.43124516 49.43806206 -4.85546875 44.3671875 C-2.45892046 39.36328344 -2.60910281 33.87508299 -3.41796875 28.4921875 C-5.44937772 22.80049785 -9.15512772 19.28489891 -14.3828125 16.40234375 C-21.93767368 13.02368222 -29.38321466 14.89001253 -35.79296875 19.8046875 Z " fill="#000000" transform="translate(278.41796875,221.5078125)"/>
</svg>
